<svg width="358" height="48" viewBox="0 0 358 48" fill="none" xmlns="http://www.w3.org/2000/svg">
<path d="M72.3999 31L78.1999 17H80.3999L86.1999 31H83.8999L82.3999 27.3H76.1999L74.6999 31H72.3999ZM79.2999 19.5L76.9999 25.3H81.5999L79.2999 19.5ZM89.8999 27V31H87.8999V21.4H89.8999V25.2H94.5999V21.4H96.5999V31H94.5999V27H89.8999ZM107.1 31H105.1V30L105 30.1C104.9 30.2 104.8 30.3 104.6 30.4C104.4 30.5 104.2 30.7 104 30.8C103.8 30.9 103.5 31 103.2 31.1C102.9 31.2 102.5 31.2 102.2 31.2C101.2 31.2 100.4 30.9 99.7999 30.4C99.1999 29.8 98.7999 29.2 98.7999 28.5C98.7999 27.7 98.9999 27.1 99.4999 26.5C99.9999 26 100.7 25.6 101.6 25.5L105.1 24.9C105.1 24.4 104.9 24 104.5 23.6C104.1 23.3 103.6 23.1 103.1 23.1C102.6 23.1 102.1 23.2 101.7 23.4C101.3 23.6 101 23.8 100.9 24L100.6 24.3L99.2999 23C99.2999 22.9 99.3999 22.9 99.4999 22.8C99.5999 22.7 99.6999 22.6 99.9999 22.4C100.2 22.2 100.5 22 100.8 21.8C101.1 21.6 101.4 21.5 101.9 21.4C102.3 21.3 102.8 21.2 103.3 21.2C104.5 21.2 105.4 21.5 106.2 22.2C106.9 22.9 107.3 23.7 107.3 24.8V31H107.1ZM102.5 29.4C103.3 29.4 103.9 29.2 104.4 28.7C104.9 28.2 105.1 27.5 105.1 26.6V26.4L102 26.9C101.6 27 101.4 27.1 101.1 27.3C100.9 27.5 100.8 27.8 100.8 28.2C100.8 28.5 101 28.8 101.3 29C101.6 29.3 102 29.4 102.5 29.4ZM111 21.4H118.4V31H116.4V23.2H113V24.2C113 26 112.9 27.5 112.6 28.5C112.3 29.6 111.9 30.3 111.5 30.6C111.1 31 110.5 31.1 109.8 31.1C109.6 31.1 109.4 31.1 109.2 31.1C109 31.1 108.9 31 108.7 31H108.5V29.1C108.8 29.2 109 29.2 109.2 29.2C109.6 29.2 109.9 29.1 110.2 28.9C110.4 28.7 110.6 28.2 110.8 27.4C111 26.6 111 25.6 111 24.2V21.4ZM128.2 21.4H130V31H128V24.7L123 31H121.2V21.4H123.2V27.7L128.2 21.4ZM131.8 23.2V21.4H140.4V23.2H137.1V31H135.1V23.2H131.8ZM149.2 21.4H151V31H149V24.7L144 31H142.2V21.4H144.2V27.7L149.2 21.4ZM159.8 31V27.4C159.1 27.9 158.3 28.1 157.4 28.1C156.2 28.1 155.3 27.8 154.6 27.1C153.9 26.4 153.6 25.4 153.6 24.2V21.4H155.6V24.2C155.6 24.8 155.8 25.3 156.2 25.7C156.6 26.1 157.1 26.3 157.6 26.3C158 26.3 158.4 26.2 158.8 26.1C159.2 26 159.4 25.8 159.6 25.7L159.8 25.5V21.4H161.8V31H159.8ZM173.5 26.9H166C166.1 27.6 166.4 28.2 167 28.7C167.6 29.2 168.2 29.4 169 29.4C169.6 29.4 170.1 29.3 170.6 29C171.1 28.7 171.4 28.5 171.6 28.3L171.9 27.9L173.2 29.2C173.2 29.3 173.1 29.3 173 29.4C172.9 29.5 172.7 29.7 172.5 29.9C172.2 30.1 172 30.3 171.7 30.5C171.4 30.7 171 30.8 170.5 31C170 31.1 169.5 31.2 169 31.2C167.6 31.2 166.5 30.7 165.5 29.7C164.5 28.7 164 27.5 164 26.1C164 24.8 164.5 23.6 165.4 22.6C166.4 21.6 167.5 21.2 168.9 21.2C170.2 21.2 171.4 21.6 172.3 22.5C173.2 23.4 173.6 24.5 173.6 25.9L173.5 26.9ZM168.9 22.9C168.2 22.9 167.6 23.1 167.1 23.5C166.6 23.9 166.3 24.5 166.1 25.2H171.7C171.6 24.5 171.3 24 170.8 23.5C170.3 23.1 169.7 22.9 168.9 22.9ZM176.7 29.7C175.7 28.7 175.2 27.5 175.2 26.2C175.2 24.9 175.7 23.7 176.7 22.7C177.7 21.7 178.9 21.2 180.2 21.2C180.9 21.2 181.6 21.4 182.3 21.7C182.9 22 183.4 22.3 183.7 22.7L184.1 23.2L182.8 24.5C182.7 24.4 182.6 24.3 182.5 24.1C182.4 23.9 182.1 23.7 181.6 23.5C181.2 23.2 180.7 23.1 180.2 23.1C179.4 23.1 178.7 23.4 178.1 24C177.5 24.6 177.2 25.4 177.2 26.3C177.2 27.2 177.5 27.9 178.1 28.6C178.7 29.2 179.4 29.5 180.2 29.5C180.7 29.5 181.2 29.4 181.6 29.1C182.1 28.8 182.4 28.6 182.6 28.4L182.9 28L184.2 29.3C184.2 29.4 184.1 29.4 184 29.5C183.9 29.6 183.8 29.8 183.5 30C183.2 30.2 183 30.4 182.7 30.6C182.4 30.8 182 30.9 181.6 31.1C181.1 31.2 180.7 31.3 180.2 31.3C178.9 31.2 177.7 30.7 176.7 29.7ZM194.7 21.4L191 25.4L195 31H192.8L189.7 26.7L188.2 28.3V31H186.2V21.4H188.2V25.7L192.3 21.4H194.7ZM203.6 21.4H205.4V31H203.4V24.7L198.4 31H196.6V21.4H198.6V27.7L203.6 21.4ZM215.2 21.4H217V31H215V24.7L210 31H208.2V21.4H210.2V27.7L215.2 21.4ZM211.6 18C211.9 18.3 212.2 18.4 212.6 18.4C213 18.4 213.3 18.3 213.6 18C213.9 17.7 214 17.4 214 17H215.5C215.5 17.8 215.2 18.5 214.7 19C214.2 19.5 213.5 19.8 212.6 19.8C211.8 19.8 211.1 19.5 210.5 19C210 18.5 209.7 17.8 209.7 17H211.2C211.2 17.4 211.3 17.7 211.6 18ZM223.8 31V21.4H225.8V29.2H230.3V21.4H232.3V29.2H233.7V33.4H231.7V31H223.8ZM244.6 26.9H237.1C237.2 27.6 237.5 28.2 238.1 28.7C238.7 29.2 239.3 29.4 240.1 29.4C240.7 29.4 241.2 29.3 241.7 29C242.2 28.7 242.5 28.5 242.7 28.3L243 27.9L244.3 29.2C244.3 29.3 244.2 29.3 244.1 29.4C244 29.5 243.8 29.7 243.6 29.9C243.3 30.1 243 30.3 242.7 30.5C242.4 30.7 242 30.8 241.5 31C241 31.1 240.5 31.2 240 31.2C238.6 31.2 237.5 30.7 236.5 29.7C235.5 28.7 235 27.5 235 26.1C235 24.8 235.5 23.6 236.4 22.6C237.4 21.6 238.5 21.2 239.9 21.2C241.2 21.2 242.4 21.6 243.3 22.5C244.2 23.4 244.6 24.5 244.6 25.9V26.9ZM240 22.9C239.3 22.9 238.7 23.1 238.2 23.5C237.7 23.9 237.4 24.5 237.2 25.2H242.8C242.7 24.5 242.4 24 241.9 23.5C241.3 23.1 240.7 22.9 240 22.9ZM248.9 27V31H246.9V21.4H248.9V25.2H253.6V21.4H255.6V31H253.6V27H248.9ZM257.4 23.2V21.4H266V23.2H262.7V31H260.7V23.2H257.4ZM272.9 31.2C272.5 31.2 272.2 31.2 271.9 31.1C271.6 31 271.3 30.9 271 30.8C270.8 30.7 270.5 30.5 270.4 30.4C270.2 30.3 270.1 30.2 270 30.1L269.9 30V35.3H267.9V21.4H269.9V22.5C270 22.4 270.1 22.3 270.3 22.1C270.5 22 270.8 21.8 271.4 21.5C271.9 21.3 272.5 21.1 273.1 21.1C274.4 21.1 275.5 21.6 276.4 22.6C277.3 23.6 277.8 24.7 277.8 26.1C277.8 27.5 277.3 28.7 276.4 29.6C275.3 30.7 274.2 31.2 272.9 31.2ZM274.7 23.9C274.1 23.3 273.4 23 272.7 23C271.9 23 271.3 23.3 270.7 23.9C270.1 24.5 269.8 25.3 269.8 26.2C269.8 27.1 270.1 27.8 270.7 28.5C271.3 29.2 272 29.4 272.7 29.4C273.5 29.4 274.1 29.1 274.7 28.5C275.3 27.9 275.6 27.1 275.6 26.2C275.6 25.3 275.3 24.6 274.7 23.9ZM291.8 23.8L297.2 17H299.1V31H296.9V20.8L291.8 27.2L286.7 20.8V31H284.5V17H286.4L291.8 23.8ZM308.9 28.5C309.5 27.9 309.8 27.1 309.8 26.2C309.8 25.3 309.5 24.5 308.9 23.9C308.3 23.3 307.6 23 306.8 23C306 23 305.3 23.3 304.7 23.9C304.1 24.5 303.8 25.3 303.8 26.2C303.8 27.1 304.1 27.8 304.7 28.5C305.3 29.1 306 29.4 306.8 29.4C307.6 29.4 308.3 29.1 308.9 28.5ZM303.3 29.7C302.3 28.7 301.8 27.5 301.8 26.2C301.8 24.9 302.3 23.7 303.3 22.7C304.3 21.7 305.5 21.2 306.8 21.2C308.1 21.2 309.3 21.7 310.3 22.7C311.3 23.7 311.8 24.9 311.8 26.2C311.8 27.5 311.3 28.7 310.3 29.7C309.3 30.7 308.1 31.2 306.8 31.2C305.4 31.2 304.3 30.7 303.3 29.7ZM314.9 29.7C313.9 28.7 313.4 27.5 313.4 26.2C313.4 24.9 313.9 23.7 314.9 22.7C315.9 21.7 317.1 21.2 318.4 21.2C319.1 21.2 319.8 21.4 320.5 21.7C321.1 22 321.6 22.3 321.9 22.7L322.3 23.2L321 24.5C320.9 24.4 320.8 24.3 320.7 24.1C320.6 23.9 320.3 23.7 319.8 23.5C319.4 23.2 318.9 23.1 318.4 23.1C317.6 23.1 316.9 23.4 316.3 24C315.7 24.6 315.4 25.4 315.4 26.3C315.4 27.2 315.7 27.9 316.3 28.6C316.9 29.2 317.6 29.5 318.4 29.5C318.9 29.5 319.4 29.4 319.8 29.1C320.2 28.8 320.6 28.6 320.8 28.4L321.1 28L322.4 29.3C322.4 29.4 322.3 29.4 322.2 29.5C322.1 29.6 322 29.8 321.7 30C321.4 30.2 321.2 30.4 320.9 30.6C320.6 30.8 320.2 30.9 319.8 31.1C319.3 31.2 318.9 31.3 318.4 31.3C317 31.2 315.9 30.7 314.9 29.7ZM332.9 21.4L329.2 25.4L333.2 31H331L327.9 26.7L326.4 28.3V31H324.4V21.4H326.4V25.7L330.5 21.4H332.9ZM334.8 21.4H339.4C340.3 21.4 341 21.6 341.6 22.1C342.1 22.6 342.4 23.2 342.4 23.9C342.4 24.3 342.3 24.7 342.1 25C341.9 25.3 341.7 25.6 341.6 25.7L341.3 25.9C341.3 25.9 341.4 25.9 341.5 26C341.6 26 341.7 26.1 341.9 26.3C342.1 26.4 342.3 26.6 342.4 26.7C342.5 26.9 342.7 27.1 342.8 27.3C342.9 27.6 343 27.9 343 28.2C343 29 342.7 29.7 342.1 30.2C341.5 30.7 340.7 31 339.7 31H334.9V21.4H334.8ZM339.6 26.7H336.8V29.3H339.6C340 29.3 340.3 29.2 340.5 28.9C340.7 28.7 340.9 28.3 340.9 28C340.9 27.6 340.8 27.3 340.5 27.1C340.2 26.9 340 26.7 339.6 26.7ZM340.1 24.8C340.3 24.6 340.4 24.4 340.4 24.1C340.4 23.8 340.3 23.5 340.1 23.4C339.9 23.2 339.7 23.1 339.4 23.1H336.8V25.1H339.4C339.7 25.1 339.9 25 340.1 24.8ZM347.1 29.3H349.2C349.7 29.3 350 29.1 350.3 28.8C350.6 28.5 350.8 28.1 350.8 27.7C350.8 27.3 350.6 26.9 350.3 26.6C350 26.3 349.6 26.1 349.2 26.1H347.1V29.3ZM351.8 25.3C352.5 25.9 352.8 26.7 352.8 27.7C352.8 28.7 352.5 29.4 351.8 30.1C351.1 30.7 350.3 31 349.2 31H345.1V21.4H347.1V24.4H349.2C350.2 24.4 351.1 24.7 351.8 25.3ZM356.2 21.4V31H354.2V21.4H356.2Z" fill="#172B4D"/>
<path d="M0 9.2C0 4.1 3.9 0 8.8 0H39.2C44.1 0 48 4.1 48 9.2V38.8C48 43.9 44.1 48 39.2 48H8.8C3.9 48 0 43.9 0 38.8V9.2Z" fill="url(#paint0_linear_8_158)"/>
<path fill-rule="evenodd" clip-rule="evenodd" d="M43.7 5.90001C44.2 6.20001 44.5 6.60001 44.7 7.20001C44.8 7.70001 44.8 8.30001 44.5 8.80001L29.8 34.5L24.8 28L18.9 38L13.8 31.4L7.8 40.1C7.6 40.3 7.4 40.5 7.2 40.7C7 40.9 6.7 41 6.4 41C6.1 41 5.9 41 5.6 41C5.3 40.9 5.1 40.8 4.9 40.7C4.7 40.5 4.5 40.3 4.3 40.1C4.2 39.9 4.1 39.6 4 39.3C4 39 4 38.7 4 38.5C4.1 38.2 4.2 38 4.3 37.7L13.5 24.3L18.3 30.6L24.2 20.7L29.1 27.1L40.9 6.70001C41 6.50001 41.2 6.20001 41.4 6.10001C41.6 5.90001 41.9 5.80001 42.1 5.70001C42.4 5.60001 42.6 5.60001 42.9 5.60001C43.2 5.70001 43.5 5.80001 43.7 5.90001Z" fill="white"/>
<defs>
<linearGradient id="paint0_linear_8_158" x1="24" y1="0" x2="24" y2="48" gradientUnits="userSpaceOnUse">
<stop stop-color="#007DCD"/>
<stop offset="1" stop-color="#FF0000"/>
</linearGradient>
</defs>
</svg>
