<svg width="48" height="48" fill="none" xmlns="http://www.w3.org/2000/svg"><path d="M0 9.191C0 4.116 3.947 0 8.816 0h30.368C44.053 0 48 4.115 48 9.191V38.81C48 43.885 44.053 48 39.184 48H8.816C3.947 48 0 43.885 0 38.809V9.19z" fill="url(#paint0_linear)"/><path fill-rule="evenodd" clip-rule="evenodd" d="M43.716 5.932c.478.283.827.747.968 1.291a2.153 2.153 0 01-.213 1.61L29.788 34.516l-4.998-6.47-5.86 9.926-5.109-6.614-6.019 8.697a2.067 2.067 0 01-2.17.867 2.07 2.07 0 01-.749-.337 2.108 2.108 0 01-.564-.603 2.144 2.144 0 01-.268-1.61c.062-.274.177-.532.338-.76l9.249-13.362 4.832 6.255 5.858-9.927 4.943 6.398L40.863 6.7c.138-.24.32-.452.538-.62a2.073 2.073 0 011.545-.416c.271.037.533.128.77.268z" fill="#fff"/><defs><linearGradient id="paint0_linear" x1="24" y1="0" x2="24" y2="48" gradientUnits="userSpaceOnUse"><stop stop-color="#007DCD"/><stop offset="1" stop-color="red"/></linearGradient></defs></svg>